<svg width="393" height="72" viewBox="0 0 393 72" fill="none" xmlns="http://www.w3.org/2000/svg">
<path d="M21.0584 48V24.1182H27.5309C29.2677 24.1182 30.5297 24.5434 31.3167 25.3937C32.1127 26.235 32.5108 27.6281 32.5108 29.573V30.6179C32.5108 31.7396 32.3072 32.6487 31.9002 33.3453C31.5021 34.0418 30.8915 34.4986 30.0683 34.7158C31.1448 34.9871 31.864 35.6249 32.2258 36.629C32.5967 37.6241 32.7822 38.8408 32.7822 40.2791C32.7822 41.826 32.6374 43.1784 32.3479 44.3363C32.0585 45.4942 31.5338 46.3943 30.7739 47.0366C30.014 47.6788 28.933 48 27.5309 48H21.0584ZM25.7262 33.1146H26.7032C27.1464 33.1146 27.4314 32.9427 27.558 32.599C27.6847 32.2552 27.748 31.8436 27.748 31.3642V28.9624C27.748 28.1935 27.4088 27.809 26.7303 27.809H25.7262V33.1146ZM26.2011 43.7935C27.4404 43.7935 28.0601 43.2055 28.0601 42.0295V39.0443C28.0601 38.3659 27.9561 37.8321 27.748 37.4432C27.549 37.0451 27.169 36.8461 26.6082 36.8461H25.7262V43.7664C25.9252 43.7845 26.0835 43.7935 26.2011 43.7935ZM34.3562 48V24.1182H43.9089V28.7317H39.2139V33.386H43.7189V37.8774H39.2139V43.3457H44.221V48H34.3562ZM47.6811 48L45.1165 24.1182H49.7843L51.1005 39.1936L52.4439 24.1182H56.8946L58.1701 39.1936L59.4456 24.1182H64.1677L61.5624 48H55.8362L54.6421 36.5069L53.5023 48H47.6811ZM65.5924 48V24.1182H75.1451V28.7317H70.4502V33.386H74.9551V37.8774H70.4502V43.3457H75.4572V48H65.5924ZM76.3935 48L78.7002 24.1182H86.801L89.0671 48H84.5485L84.2093 44.1463H81.3327L81.0341 48H76.3935ZM81.6719 40.3334H83.843L82.7981 28.189H82.581L81.6719 40.3334ZM90.5325 48V24.1182H97.8599C99.0811 24.1182 100.004 24.3987 100.628 24.9595C101.252 25.5113 101.668 26.2893 101.876 27.2934C102.093 28.2885 102.202 29.46 102.202 30.8078C102.202 32.1105 102.035 33.1508 101.7 33.9287C101.374 34.7067 100.755 35.2449 99.841 35.5435C100.592 35.6973 101.116 36.0727 101.415 36.6697C101.723 37.2577 101.876 38.0221 101.876 38.9629V48H97.1679V38.6508C97.1679 37.9543 97.0231 37.5246 96.7337 37.3617C96.4532 37.1899 95.9964 37.1039 95.3632 37.1039V48H90.5325ZM95.3903 32.9653H96.5437C97.2041 32.9653 97.5342 32.2462 97.5342 30.8078C97.5342 29.8761 97.4619 29.2655 97.3171 28.976C97.1724 28.6865 96.901 28.5418 96.503 28.5418H95.3903V32.9653Z" fill="black"/>
<path d="M107.967 24C108.642 24 109.246 24.1495 109.777 24.4484C110.32 24.7474 110.741 25.1682 111.04 25.7107C111.339 26.2422 111.488 26.8512 111.488 27.5377C111.488 28.2131 111.339 28.8166 111.04 29.3481C110.741 29.8796 110.32 30.3003 109.777 30.6104C109.246 30.9093 108.642 31.0588 107.967 31.0588C107.291 31.0588 106.682 30.9093 106.14 30.6104C105.608 30.3003 105.188 29.8796 104.878 29.3481C104.579 28.8166 104.429 28.2131 104.429 27.5377C104.429 26.8512 104.579 26.2422 104.878 25.7107C105.188 25.1682 105.608 24.7474 106.14 24.4484C106.682 24.1495 107.291 24 107.967 24ZM107.967 30.2118C108.764 30.2118 109.401 29.9682 109.877 29.481C110.364 28.9827 110.608 28.3349 110.608 27.5377C110.608 26.7294 110.364 26.0817 109.877 25.5945C109.401 25.0962 108.764 24.8471 107.967 24.8471C107.17 24.8471 106.533 25.0962 106.057 25.5945C105.581 26.0817 105.343 26.7294 105.343 27.5377C105.343 28.346 105.581 28.9938 106.057 29.481C106.533 29.9682 107.17 30.2118 107.967 30.2118ZM109.528 26.8734C109.528 27.117 109.467 27.3273 109.345 27.5045C109.235 27.6817 109.074 27.8145 108.864 27.9031L109.727 29.2651H108.432L107.718 28.0194H107.618V29.2651H106.505V25.7107H108.249C108.637 25.7107 108.947 25.8215 109.179 26.0429C109.412 26.2533 109.528 26.5301 109.528 26.8734ZM107.602 27.1889H108.133C108.211 27.1889 108.277 27.1668 108.332 27.1225C108.388 27.0782 108.415 27.0118 108.415 26.9232C108.415 26.7571 108.321 26.674 108.133 26.674H107.602V27.1889Z" fill="black"/>
<path d="M299.5 31L302 27.6667H312L314.5 31M299.5 31V42.6667C299.5 43.1087 299.676 43.5326 299.988 43.8452C300.301 44.1577 300.725 44.3333 301.167 44.3333H312.833C313.275 44.3333 313.699 44.1577 314.012 43.8452C314.324 43.5326 314.5 43.1087 314.5 42.6667V31M299.5 31H314.5M310.333 34.3333C310.333 35.2174 309.982 36.0652 309.357 36.6903C308.732 37.3155 307.884 37.6667 307 37.6667C306.116 37.6667 305.268 37.3155 304.643 36.6903C304.018 36.0652 303.667 35.2174 303.667 34.3333" stroke="#656565" stroke-width="1.66667" stroke-linecap="round" stroke-linejoin="round"/>
<path opacity="0.1" d="M334 29L334 43" stroke="black" stroke-width="1.76383" stroke-linecap="round"/>
<path d="M353 36H369M353 42H369M353 30H369" stroke="#656565" stroke-width="1.66667" stroke-linecap="round" stroke-linejoin="round"/>
</svg>
